<?xml version="1.0" encoding="us-ascii" standalone="no"?><svg xmlns="http://www.w3.org/2000/svg" xmlns:xlink="http://www.w3.org/1999/xlink" contentStyleType="text/css" height="863px" preserveAspectRatio="none" style="width:659px;height:863px;background:#FFFFFF;" version="1.1" viewBox="0 0 659 863" width="659px" zoomAndPan="magnify"><defs/><g><text fill="#000000" font-family="sans-serif" font-size="14" font-weight="bold" lengthAdjust="spacing" textLength="595" x="28.25" y="29.5332">As a reader, upon returning a Book, I want to recommend it (positively or negatively).</text><rect fill="#FFFFFF" height="468.5703" style="stroke:#181818;stroke-width:1.0;" width="10" x="192" y="349.0313"/><rect fill="#FFFFFF" height="318.1641" style="stroke:#181818;stroke-width:1.0;" width="10" x="325" y="483.4375"/><rect fill="#FFFFFF" height="664.6797" style="stroke:#181818;stroke-width:1.0;" width="10" x="584" y="152.9219"/><line style="stroke:#181818;stroke-width:0.5;stroke-dasharray:5.0,5.0;" x1="197" x2="197" y1="76.2188" y2="826.6016"/><line style="stroke:#181818;stroke-width:0.5;stroke-dasharray:5.0,5.0;" x1="329.5" x2="329.5" y1="76.2188" y2="826.6016"/><line style="stroke:#181818;stroke-width:0.5;stroke-dasharray:5.0,5.0;" x1="588.5" x2="588.5" y1="76.2188" y2="826.6016"/><rect fill="#E2E2F0" height="31.6094" rx="2.5" ry="2.5" style="stroke:#181818;stroke-width:0.5;" width="72" x="161" y="43.6094"/><text fill="#000000" font-family="sans-serif" font-size="14" lengthAdjust="spacing" textLength="58" x="168" y="65.1426">Lendings</text><rect fill="#E2E2F0" height="31.6094" rx="2.5" ry="2.5" style="stroke:#181818;stroke-width:0.5;" width="72" x="161" y="825.6016"/><text fill="#000000" font-family="sans-serif" font-size="14" lengthAdjust="spacing" textLength="58" x="168" y="847.1348">Lendings</text><rect fill="#E2E2F0" height="31.6094" rx="2.5" ry="2.5" style="stroke:#181818;stroke-width:0.5;" width="131" x="264.5" y="43.6094"/><text fill="#000000" font-family="sans-serif" font-size="14" lengthAdjust="spacing" textLength="117" x="271.5" y="65.1426">Recommendations</text><rect fill="#E2E2F0" height="31.6094" rx="2.5" ry="2.5" style="stroke:#181818;stroke-width:0.5;" width="131" x="264.5" y="825.6016"/><text fill="#000000" font-family="sans-serif" font-size="14" lengthAdjust="spacing" textLength="117" x="271.5" y="847.1348">Recommendations</text><rect fill="#E2E2F0" height="31.6094" rx="2.5" ry="2.5" style="stroke:#181818;stroke-width:0.5;" width="117" x="530.5" y="43.6094"/><text fill="#000000" font-family="sans-serif" font-size="14" lengthAdjust="spacing" textLength="103" x="537.5" y="65.1426">Message Broker</text><rect fill="#E2E2F0" height="31.6094" rx="2.5" ry="2.5" style="stroke:#181818;stroke-width:0.5;" width="117" x="530.5" y="825.6016"/><text fill="#000000" font-family="sans-serif" font-size="14" lengthAdjust="spacing" textLength="103" x="537.5" y="847.1348">Message Broker</text><rect fill="#FFFFFF" height="468.5703" style="stroke:#181818;stroke-width:1.0;" width="10" x="192" y="349.0313"/><rect fill="#FFFFFF" height="318.1641" style="stroke:#181818;stroke-width:1.0;" width="10" x="325" y="483.4375"/><rect fill="#FFFFFF" height="664.6797" style="stroke:#181818;stroke-width:1.0;" width="10" x="584" y="152.9219"/><rect fill="#EEEEEE" height="3" style="stroke:#EEEEEE;stroke-width:1.0;" width="652.5" x="0" y="107.3945"/><line style="stroke:#000000;stroke-width:1.0;" x1="0" x2="652.5" y1="107.3945" y2="107.3945"/><line style="stroke:#000000;stroke-width:1.0;" x1="0" x2="652.5" y1="110.3945" y2="110.3945"/><rect fill="#EEEEEE" height="24.3516" style="stroke:#000000;stroke-width:2.0;" width="149" x="251.75" y="96.2188"/><text fill="#000000" font-family="sans-serif" font-size="13" font-weight="bold" lengthAdjust="spacing" textLength="131" x="257.75" y="113.7139">Service Initialization</text><polygon fill="#181818" points="572,148.9219,582,152.9219,572,156.9219,576,152.9219" style="stroke:#181818;stroke-width:1.0;"/><line style="stroke:#181818;stroke-width:1.0;" x1="197" x2="578" y1="152.9219" y2="152.9219"/><text fill="#000000" font-family="sans-serif" font-size="13" lengthAdjust="spacing" textLength="179" x="204" y="148.0654">Subscribe to "lending.returned"</text><polygon fill="#181818" points="572,179.2734,582,183.2734,572,187.2734,576,183.2734" style="stroke:#181818;stroke-width:1.0;"/><line style="stroke:#181818;stroke-width:1.0;" x1="197" x2="578" y1="183.2734" y2="183.2734"/><text fill="#000000" font-family="sans-serif" font-size="13" lengthAdjust="spacing" textLength="230" x="204" y="178.417">Subscribe to "recommendation.created"</text><polygon fill="#181818" points="572,209.625,582,213.625,572,217.625,576,213.625" style="stroke:#181818;stroke-width:1.0;"/><line style="stroke:#181818;stroke-width:1.0;" x1="330" x2="578" y1="213.625" y2="213.625"/><text fill="#000000" font-family="sans-serif" font-size="13" lengthAdjust="spacing" textLength="179" x="337" y="208.7686">Subscribe to "lending.returned"</text><polygon fill="#181818" points="572,239.9766,582,243.9766,572,247.9766,576,243.9766" style="stroke:#181818;stroke-width:1.0;"/><line style="stroke:#181818;stroke-width:1.0;" x1="330" x2="578" y1="243.9766" y2="243.9766"/><text fill="#000000" font-family="sans-serif" font-size="13" lengthAdjust="spacing" textLength="207" x="337" y="239.1201">Subscribe to "lendingFinal.returned"</text><polygon fill="#181818" points="572,270.3281,582,274.3281,572,278.3281,576,274.3281" style="stroke:#181818;stroke-width:1.0;"/><line style="stroke:#181818;stroke-width:1.0;" x1="330" x2="578" y1="274.3281" y2="274.3281"/><text fill="#000000" font-family="sans-serif" font-size="13" lengthAdjust="spacing" textLength="230" x="337" y="269.4717">Subscribe to "recommendation.created"</text><rect fill="#EEEEEE" height="3" style="stroke:#EEEEEE;stroke-width:1.0;" width="652.5" x="0" y="303.5039"/><line style="stroke:#000000;stroke-width:1.0;" x1="0" x2="652.5" y1="303.5039" y2="303.5039"/><line style="stroke:#000000;stroke-width:1.0;" x1="0" x2="652.5" y1="306.5039" y2="306.5039"/><rect fill="#EEEEEE" height="24.3516" style="stroke:#000000;stroke-width:2.0;" width="107" x="272.75" y="292.3281"/><text fill="#000000" font-family="sans-serif" font-size="13" font-weight="bold" lengthAdjust="spacing" textLength="89" x="278.75" y="309.8232">Creation Flow</text><polygon fill="#181818" points="180,345.0313,190,349.0313,180,353.0313,184,349.0313" style="stroke:#181818;stroke-width:1.0;"/><line style="stroke:#181818;stroke-width:1.0;" x1="0" x2="186" y1="349.0313" y2="349.0313"/><text fill="#000000" font-family="sans-serif" font-size="13" lengthAdjust="spacing" textLength="173" x="7" y="344.1748">Client return a lending (POST)</text><line style="stroke:#181818;stroke-width:1.0;" x1="202" x2="244" y1="379.3828" y2="379.3828"/><line style="stroke:#181818;stroke-width:1.0;" x1="244" x2="244" y1="379.3828" y2="392.3828"/><line style="stroke:#181818;stroke-width:1.0;" x1="203" x2="244" y1="392.3828" y2="392.3828"/><polygon fill="#181818" points="213,388.3828,203,392.3828,213,396.3828,209,392.3828" style="stroke:#181818;stroke-width:1.0;"/><text fill="#000000" font-family="sans-serif" font-size="13" lengthAdjust="spacing" textLength="109" x="209" y="374.5264">update (temporary)</text><polygon fill="#181818" points="572,418.7344,582,422.7344,572,426.7344,576,422.7344" style="stroke:#181818;stroke-width:1.0;"/><line style="stroke:#181818;stroke-width:1.0;" x1="202" x2="578" y1="422.7344" y2="422.7344"/><text fill="#000000" font-family="sans-serif" font-size="13" lengthAdjust="spacing" textLength="147" x="209" y="417.8779">publish "lending.returned"</text><polygon fill="#181818" points="11,449.0859,1,453.0859,11,457.0859,7,453.0859" style="stroke:#181818;stroke-width:1.0;"/><line style="stroke:#181818;stroke-width:1.0;stroke-dasharray:2.0,2.0;" x1="5" x2="191" y1="453.0859" y2="453.0859"/><text fill="#000000" font-family="sans-serif" font-size="13" lengthAdjust="spacing" textLength="80" x="17" y="448.2295">202 Accepted</text><polygon fill="#181818" points="346,479.4375,336,483.4375,346,487.4375,342,483.4375" style="stroke:#181818;stroke-width:1.0;"/><line style="stroke:#181818;stroke-width:1.0;" x1="340" x2="583" y1="483.4375" y2="483.4375"/><text fill="#000000" font-family="sans-serif" font-size="13" lengthAdjust="spacing" textLength="137" x="352" y="478.5811">notify "lending.returned"</text><line style="stroke:#181818;stroke-width:1.0;" x1="335" x2="377" y1="513.7891" y2="513.7891"/><line style="stroke:#181818;stroke-width:1.0;" x1="377" x2="377" y1="513.7891" y2="526.7891"/><line style="stroke:#181818;stroke-width:1.0;" x1="336" x2="377" y1="526.7891" y2="526.7891"/><polygon fill="#181818" points="346,522.7891,336,526.7891,346,530.7891,342,526.7891" style="stroke:#181818;stroke-width:1.0;"/><text fill="#000000" font-family="sans-serif" font-size="13" lengthAdjust="spacing" textLength="206" x="342" y="508.9326">create recommendation (temporary)</text><polygon fill="#181818" points="572,553.1406,582,557.1406,572,561.1406,576,557.1406" style="stroke:#181818;stroke-width:1.0;"/><line style="stroke:#181818;stroke-width:1.0;" x1="335" x2="578" y1="557.1406" y2="557.1406"/><text fill="#000000" font-family="sans-serif" font-size="13" lengthAdjust="spacing" textLength="198" x="342" y="552.2842">publish "recommendation.created"</text><polygon fill="#181818" points="213,583.4922,203,587.4922,213,591.4922,209,587.4922" style="stroke:#181818;stroke-width:1.0;"/><line style="stroke:#181818;stroke-width:1.0;" x1="207" x2="583" y1="587.4922" y2="587.4922"/><text fill="#000000" font-family="sans-serif" font-size="13" lengthAdjust="spacing" textLength="188" x="219" y="582.6357">notify "recommendation.created"</text><line style="stroke:#181818;stroke-width:1.0;" x1="202" x2="244" y1="617.8438" y2="617.8438"/><line style="stroke:#181818;stroke-width:1.0;" x1="244" x2="244" y1="617.8438" y2="630.8438"/><line style="stroke:#181818;stroke-width:1.0;" x1="203" x2="244" y1="630.8438" y2="630.8438"/><polygon fill="#181818" points="213,626.8438,203,630.8438,213,634.8438,209,630.8438" style="stroke:#181818;stroke-width:1.0;"/><text fill="#000000" font-family="sans-serif" font-size="13" lengthAdjust="spacing" textLength="74" x="209" y="612.9873">update (final)</text><polygon fill="#181818" points="572,657.1953,582,661.1953,572,665.1953,576,661.1953" style="stroke:#181818;stroke-width:1.0;"/><line style="stroke:#181818;stroke-width:1.0;" x1="202" x2="578" y1="661.1953" y2="661.1953"/><text fill="#000000" font-family="sans-serif" font-size="13" lengthAdjust="spacing" textLength="175" x="209" y="656.3389">publish "lendingFinal.returned"</text><polygon fill="#181818" points="346,687.5469,336,691.5469,346,695.5469,342,691.5469" style="stroke:#181818;stroke-width:1.0;"/><line style="stroke:#181818;stroke-width:1.0;" x1="340" x2="583" y1="691.5469" y2="691.5469"/><text fill="#000000" font-family="sans-serif" font-size="13" lengthAdjust="spacing" textLength="165" x="352" y="686.6904">notify "lendingFinal.returned"</text><line style="stroke:#181818;stroke-width:1.0;" x1="335" x2="377" y1="721.8984" y2="721.8984"/><line style="stroke:#181818;stroke-width:1.0;" x1="377" x2="377" y1="721.8984" y2="734.8984"/><line style="stroke:#181818;stroke-width:1.0;" x1="336" x2="377" y1="734.8984" y2="734.8984"/><polygon fill="#181818" points="346,730.8984,336,734.8984,346,738.8984,342,734.8984" style="stroke:#181818;stroke-width:1.0;"/><text fill="#000000" font-family="sans-serif" font-size="13" lengthAdjust="spacing" textLength="136" x="342" y="717.042">create recommendation</text><polygon fill="#181818" points="213,761.25,203,765.25,213,769.25,209,765.25" style="stroke:#181818;stroke-width:1.0;"/><line style="stroke:#181818;stroke-width:1.0;" x1="207" x2="583" y1="765.25" y2="765.25"/><text fill="#000000" font-family="sans-serif" font-size="13" lengthAdjust="spacing" textLength="137" x="219" y="760.3936">notify "lending.returned"</text><line style="stroke:#181818;stroke-width:1.0;" x1="202" x2="244" y1="800.6016" y2="800.6016"/><line style="stroke:#181818;stroke-width:1.0;" x1="244" x2="244" y1="800.6016" y2="813.6016"/><line style="stroke:#181818;stroke-width:1.0;" x1="197" x2="244" y1="813.6016" y2="813.6016"/><polygon fill="#181818" points="207,809.6016,197,813.6016,207,817.6016,203,813.6016" style="stroke:#181818;stroke-width:1.0;"/><text fill="#000000" font-family="sans-serif" font-size="13" lengthAdjust="spacing" textLength="93" x="209" y="795.7451">already returned</text><!--SRC=[ZLD1Ri8m4Bpx5QkSG09KSKHDfOA4XDIgLUcDa-CirCAnhOq3Ib_VDO6M54ARcxCpuvdP9EXW41vBa40eSwG1LDvPFeIAhBOR7aoTsmvW0Njf0mJ7C-MA0cqEEa3Fkr87lKDJWoEmk97DgJy28Roae9NsaPayCOKLomHa2QOzUpjfCjlP1a9jo3EMfTmWJCbjaGw88XCYJM69jDCAOM7PYJJwyo02QIhuCJ1yOE04bbLMAj8PnWo9QSoCcg2O9q8gDYu3HjKE4hLSZXHN5Y9Lq7ylkGsSQolDt-XE6zp5B1vY-hbn-qC5AzOmC86PqSWzDkgyrkETq7jzMRxtV-AROsUHK_aylke5BBmZINN_L0qFVPKPNNvSYxcw7mvPW47Zkp4yAeMU7V87mKIc4m-i2tfTtrm4DGL4T9CHsibRlkZILsTFZGjpvg8BUj74EgxeLWk_TnYVpjHN5zwPzvhno_g-BKiJV-aQJYCXSZphLeWl]--></g></svg>