<?xml version="1.0" encoding="us-ascii" standalone="no"?><svg xmlns="http://www.w3.org/2000/svg" xmlns:xlink="http://www.w3.org/1999/xlink" contentStyleType="text/css" height="807px" preserveAspectRatio="none" style="width:1006px;height:807px;background:#FFFFFF;" version="1.1" viewBox="0 0 1006 807" width="1006px" zoomAndPan="magnify"><defs/><g><text fill="#000000" font-family="sans-serif" font-size="14" font-weight="bold" lengthAdjust="spacing" textLength="423" x="287.5" y="29.5332">As a reader, I want to suggest the acquisition of a new Book.</text><rect fill="#FFFFFF" height="104.0547" style="stroke:#181818;stroke-width:1.0;" width="10" x="395" y="318.6797"/><rect fill="#FFFFFF" height="307.6484" style="stroke:#181818;stroke-width:1.0;" width="10" x="533.5" y="453.0859"/><rect fill="#FFFFFF" height="104.0547" style="stroke:#181818;stroke-width:1.0;" width="10" x="719.5" y="582.4922"/><rect fill="none" height="242.2969" style="stroke:#000000;stroke-width:1.5;" width="521" x="468" y="511.4375"/><line style="stroke:#181818;stroke-width:0.5;stroke-dasharray:5.0,5.0;" x1="30" x2="30" y1="76.2188" y2="770.7344"/><line style="stroke:#181818;stroke-width:0.5;stroke-dasharray:5.0,5.0;" x1="400" x2="400" y1="76.2188" y2="770.7344"/><line style="stroke:#181818;stroke-width:0.5;stroke-dasharray:5.0,5.0;" x1="538" x2="538" y1="76.2188" y2="770.7344"/><line style="stroke:#181818;stroke-width:0.5;stroke-dasharray:5.0,5.0;" x1="724" x2="724" y1="76.2188" y2="770.7344"/><line style="stroke:#181818;stroke-width:0.5;stroke-dasharray:5.0,5.0;" x1="920" x2="920" y1="76.2188" y2="770.7344"/><rect fill="#E2E2F0" height="31.6094" rx="2.5" ry="2.5" style="stroke:#181818;stroke-width:0.5;" width="50" x="5" y="43.6094"/><text fill="#000000" font-family="sans-serif" font-size="14" lengthAdjust="spacing" textLength="36" x="12" y="65.1426">Client</text><rect fill="#E2E2F0" height="31.6094" rx="2.5" ry="2.5" style="stroke:#181818;stroke-width:0.5;" width="50" x="5" y="769.7344"/><text fill="#000000" font-family="sans-serif" font-size="14" lengthAdjust="spacing" textLength="36" x="12" y="791.2676">Client</text><rect fill="#E2E2F0" height="31.6094" rx="2.5" ry="2.5" style="stroke:#181818;stroke-width:0.5;" width="136" x="332" y="43.6094"/><text fill="#000000" font-family="sans-serif" font-size="14" lengthAdjust="spacing" textLength="122" x="339" y="65.1426">Suggestion Service</text><rect fill="#E2E2F0" height="31.6094" rx="2.5" ry="2.5" style="stroke:#181818;stroke-width:0.5;" width="136" x="332" y="769.7344"/><text fill="#000000" font-family="sans-serif" font-size="14" lengthAdjust="spacing" textLength="122" x="339" y="791.2676">Suggestion Service</text><rect fill="#E2E2F0" height="31.6094" rx="2.5" ry="2.5" style="stroke:#181818;stroke-width:0.5;" width="121" x="478" y="43.6094"/><text fill="#000000" font-family="sans-serif" font-size="14" lengthAdjust="spacing" textLength="107" x="485" y="65.1426">Librarian Service</text><rect fill="#E2E2F0" height="31.6094" rx="2.5" ry="2.5" style="stroke:#181818;stroke-width:0.5;" width="121" x="478" y="769.7344"/><text fill="#000000" font-family="sans-serif" font-size="14" lengthAdjust="spacing" textLength="107" x="485" y="791.2676">Librarian Service</text><rect fill="#E2E2F0" height="31.6094" rx="2.5" ry="2.5" style="stroke:#181818;stroke-width:0.5;" width="97" x="676" y="43.6094"/><text fill="#000000" font-family="sans-serif" font-size="14" lengthAdjust="spacing" textLength="83" x="683" y="65.1426">Book Service</text><rect fill="#E2E2F0" height="31.6094" rx="2.5" ry="2.5" style="stroke:#181818;stroke-width:0.5;" width="97" x="676" y="769.7344"/><text fill="#000000" font-family="sans-serif" font-size="14" lengthAdjust="spacing" textLength="83" x="683" y="791.2676">Book Service</text><rect fill="#E2E2F0" height="31.6094" rx="2.5" ry="2.5" style="stroke:#181818;stroke-width:0.5;" width="117" x="862" y="43.6094"/><text fill="#000000" font-family="sans-serif" font-size="14" lengthAdjust="spacing" textLength="103" x="869" y="65.1426">Message Broker</text><rect fill="#E2E2F0" height="31.6094" rx="2.5" ry="2.5" style="stroke:#181818;stroke-width:0.5;" width="117" x="862" y="769.7344"/><text fill="#000000" font-family="sans-serif" font-size="14" lengthAdjust="spacing" textLength="103" x="869" y="791.2676">Message Broker</text><rect fill="#FFFFFF" height="104.0547" style="stroke:#181818;stroke-width:1.0;" width="10" x="395" y="318.6797"/><rect fill="#FFFFFF" height="307.6484" style="stroke:#181818;stroke-width:1.0;" width="10" x="533.5" y="453.0859"/><rect fill="#FFFFFF" height="104.0547" style="stroke:#181818;stroke-width:1.0;" width="10" x="719.5" y="582.4922"/><rect fill="#EEEEEE" height="3" style="stroke:#EEEEEE;stroke-width:1.0;" width="999" x="0" y="107.3945"/><line style="stroke:#000000;stroke-width:1.0;" x1="0" x2="999" y1="107.3945" y2="107.3945"/><line style="stroke:#000000;stroke-width:1.0;" x1="0" x2="999" y1="110.3945" y2="110.3945"/><rect fill="#EEEEEE" height="24.3516" style="stroke:#000000;stroke-width:2.0;" width="149" x="425" y="96.2188"/><text fill="#000000" font-family="sans-serif" font-size="13" font-weight="bold" lengthAdjust="spacing" textLength="131" x="431" y="113.7139">Service Initialization</text><polygon fill="#181818" points="908.5,148.9219,918.5,152.9219,908.5,156.9219,912.5,152.9219" style="stroke:#181818;stroke-width:1.0;"/><line style="stroke:#181818;stroke-width:1.0;" x1="400" x2="914.5" y1="152.9219" y2="152.9219"/><text fill="#000000" font-family="sans-serif" font-size="13" lengthAdjust="spacing" textLength="243" x="407" y="148.0654">Subscribe to "book.acquisitionSuggested"</text><polygon fill="#181818" points="908.5,179.2734,918.5,183.2734,908.5,187.2734,912.5,183.2734" style="stroke:#181818;stroke-width:1.0;"/><line style="stroke:#181818;stroke-width:1.0;" x1="538.5" x2="914.5" y1="183.2734" y2="183.2734"/><text fill="#000000" font-family="sans-serif" font-size="13" lengthAdjust="spacing" textLength="243" x="545.5" y="178.417">Subscribe to "book.acquisitionSuggested"</text><polygon fill="#181818" points="908.5,209.625,918.5,213.625,908.5,217.625,912.5,213.625" style="stroke:#181818;stroke-width:1.0;"/><line style="stroke:#181818;stroke-width:1.0;" x1="724.5" x2="914.5" y1="213.625" y2="213.625"/><text fill="#000000" font-family="sans-serif" font-size="13" lengthAdjust="spacing" textLength="172" x="731.5" y="208.7686">Subscribe to "book.accepted"</text><polygon fill="#181818" points="908.5,239.9766,918.5,243.9766,908.5,247.9766,912.5,243.9766" style="stroke:#181818;stroke-width:1.0;"/><line style="stroke:#181818;stroke-width:1.0;" x1="724.5" x2="914.5" y1="243.9766" y2="243.9766"/><text fill="#000000" font-family="sans-serif" font-size="13" lengthAdjust="spacing" textLength="162" x="731.5" y="239.1201">Subscribe to "book.created"</text><rect fill="#EEEEEE" height="3" style="stroke:#EEEEEE;stroke-width:1.0;" width="999" x="0" y="273.1523"/><line style="stroke:#000000;stroke-width:1.0;" x1="0" x2="999" y1="273.1523" y2="273.1523"/><line style="stroke:#000000;stroke-width:1.0;" x1="0" x2="999" y1="276.1523" y2="276.1523"/><rect fill="#EEEEEE" height="24.3516" style="stroke:#000000;stroke-width:2.0;" width="124" x="437.5" y="261.9766"/><text fill="#000000" font-family="sans-serif" font-size="13" font-weight="bold" lengthAdjust="spacing" textLength="106" x="443.5" y="279.4717">Suggestion Flow</text><polygon fill="#181818" points="383,314.6797,393,318.6797,383,322.6797,387,318.6797" style="stroke:#181818;stroke-width:1.0;"/><line style="stroke:#181818;stroke-width:1.0;" x1="30" x2="389" y1="318.6797" y2="318.6797"/><text fill="#000000" font-family="sans-serif" font-size="13" lengthAdjust="spacing" textLength="346" x="37" y="313.8232">Suggest acquisition of a new book (POST with book details)</text><line style="stroke:#181818;stroke-width:1.0;" x1="405" x2="447" y1="349.0313" y2="349.0313"/><line style="stroke:#181818;stroke-width:1.0;" x1="447" x2="447" y1="349.0313" y2="362.0313"/><line style="stroke:#181818;stroke-width:1.0;" x1="406" x2="447" y1="362.0313" y2="362.0313"/><polygon fill="#181818" points="416,358.0313,406,362.0313,416,366.0313,412,362.0313" style="stroke:#181818;stroke-width:1.0;"/><text fill="#000000" font-family="sans-serif" font-size="13" lengthAdjust="spacing" textLength="114" x="412" y="344.1748">Validate suggestion</text><polygon fill="#181818" points="908.5,388.3828,918.5,392.3828,908.5,396.3828,912.5,392.3828" style="stroke:#181818;stroke-width:1.0;"/><line style="stroke:#181818;stroke-width:1.0;" x1="405" x2="914.5" y1="392.3828" y2="392.3828"/><text fill="#000000" font-family="sans-serif" font-size="13" lengthAdjust="spacing" textLength="213" x="412" y="387.5264">Publish "book.acquisitionSuggested"</text><polygon fill="#181818" points="41,418.7344,31,422.7344,41,426.7344,37,422.7344" style="stroke:#181818;stroke-width:1.0;"/><line style="stroke:#181818;stroke-width:1.0;stroke-dasharray:2.0,2.0;" x1="35" x2="399" y1="422.7344" y2="422.7344"/><text fill="#000000" font-family="sans-serif" font-size="13" lengthAdjust="spacing" textLength="80" x="47" y="417.8779">202 Accepted</text><polygon fill="#181818" points="554.5,449.0859,544.5,453.0859,554.5,457.0859,550.5,453.0859" style="stroke:#181818;stroke-width:1.0;"/><line style="stroke:#181818;stroke-width:1.0;" x1="548.5" x2="919.5" y1="453.0859" y2="453.0859"/><text fill="#000000" font-family="sans-serif" font-size="13" lengthAdjust="spacing" textLength="203" x="560.5" y="448.2295">Notify "book.acquisitionSuggested"</text><line style="stroke:#181818;stroke-width:1.0;" x1="543.5" x2="585.5" y1="483.4375" y2="483.4375"/><line style="stroke:#181818;stroke-width:1.0;" x1="585.5" x2="585.5" y1="483.4375" y2="496.4375"/><line style="stroke:#181818;stroke-width:1.0;" x1="544.5" x2="585.5" y1="496.4375" y2="496.4375"/><polygon fill="#181818" points="554.5,492.4375,544.5,496.4375,554.5,500.4375,550.5,496.4375" style="stroke:#181818;stroke-width:1.0;"/><text fill="#000000" font-family="sans-serif" font-size="13" lengthAdjust="spacing" textLength="162" x="550.5" y="478.5811">Log and analyze suggestion</text><path d="M468,511.4375 L529,511.4375 L529,519.7891 L519,529.7891 L468,529.7891 L468,511.4375 " fill="#EEEEEE" style="stroke:#000000;stroke-width:1.5;"/><rect fill="none" height="242.2969" style="stroke:#000000;stroke-width:1.5;" width="521" x="468" y="511.4375"/><text fill="#000000" font-family="sans-serif" font-size="13" font-weight="bold" lengthAdjust="spacing" textLength="16" x="483" y="525.9326">alt</text><text fill="#000000" font-family="sans-serif" font-size="11" font-weight="bold" lengthAdjust="spacing" textLength="126" x="544" y="524.8564">[Suggestion Accepted]</text><polygon fill="#181818" points="908.5,548.1406,918.5,552.1406,908.5,556.1406,912.5,552.1406" style="stroke:#181818;stroke-width:1.0;"/><line style="stroke:#181818;stroke-width:1.0;" x1="543.5" x2="914.5" y1="552.1406" y2="552.1406"/><text fill="#000000" font-family="sans-serif" font-size="13" lengthAdjust="spacing" textLength="142" x="550.5" y="547.2842">Publish "book.accepted"</text><polygon fill="#181818" points="740.5,578.4922,730.5,582.4922,740.5,586.4922,736.5,582.4922" style="stroke:#181818;stroke-width:1.0;"/><line style="stroke:#181818;stroke-width:1.0;" x1="734.5" x2="919.5" y1="582.4922" y2="582.4922"/><text fill="#000000" font-family="sans-serif" font-size="13" lengthAdjust="spacing" textLength="132" x="746.5" y="577.6357">Notify "book.accepted"</text><line style="stroke:#181818;stroke-width:1.0;" x1="729.5" x2="771.5" y1="612.8438" y2="612.8438"/><line style="stroke:#181818;stroke-width:1.0;" x1="771.5" x2="771.5" y1="612.8438" y2="625.8438"/><line style="stroke:#181818;stroke-width:1.0;" x1="730.5" x2="771.5" y1="625.8438" y2="625.8438"/><polygon fill="#181818" points="740.5,621.8438,730.5,625.8438,740.5,629.8438,736.5,625.8438" style="stroke:#181818;stroke-width:1.0;"/><text fill="#000000" font-family="sans-serif" font-size="13" lengthAdjust="spacing" textLength="120" x="736.5" y="607.9873">Create SuggestBook</text><polygon fill="#181818" points="908.5,652.1953,918.5,656.1953,908.5,660.1953,912.5,656.1953" style="stroke:#181818;stroke-width:1.0;"/><line style="stroke:#181818;stroke-width:1.0;" x1="729.5" x2="914.5" y1="656.1953" y2="656.1953"/><text fill="#000000" font-family="sans-serif" font-size="13" lengthAdjust="spacing" textLength="132" x="736.5" y="651.3389">Publish "book.created"</text><polygon fill="#181818" points="554.5,682.5469,544.5,686.5469,554.5,690.5469,550.5,686.5469" style="stroke:#181818;stroke-width:1.0;"/><line style="stroke:#181818;stroke-width:1.0;" x1="548.5" x2="919.5" y1="686.5469" y2="686.5469"/><text fill="#000000" font-family="sans-serif" font-size="13" lengthAdjust="spacing" textLength="122" x="560.5" y="681.6904">Notify "book.created"</text><line style="stroke:#000000;stroke-width:1.0;stroke-dasharray:2.0,2.0;" x1="468" x2="989" y1="695.5469" y2="695.5469"/><text fill="#000000" font-family="sans-serif" font-size="11" font-weight="bold" lengthAdjust="spacing" textLength="122" x="473" y="706.9658">[Suggestion Rejected]</text><line style="stroke:#181818;stroke-width:1.0;" x1="543.5" x2="585.5" y1="732.7344" y2="732.7344"/><line style="stroke:#181818;stroke-width:1.0;" x1="585.5" x2="585.5" y1="732.7344" y2="745.7344"/><line style="stroke:#181818;stroke-width:1.0;" x1="544.5" x2="585.5" y1="745.7344" y2="745.7344"/><polygon fill="#181818" points="554.5,741.7344,544.5,745.7344,554.5,749.7344,550.5,745.7344" style="stroke:#181818;stroke-width:1.0;"/><text fill="#000000" font-family="sans-serif" font-size="13" lengthAdjust="spacing" textLength="74" x="550.5" y="727.8779">Log rejection</text><!--SRC=[bLDHQy8m47xlhpXysc2JuQFGmHG6Wjja7NjFqrDlniObKT5VloIrRLATR8L2Uldkxhllkneo0k590mE5h41r1nFOizA0aQ2tYmLgUrmYCFwz9Ks6P0boRk4bxc4avQgV91kc377QkBJUM12MfWTC0_V7-3ghQheo6QeTSVHGtOHZ-9HonHIn62tgQ0nsT29SRWCnv0MrPWk4aP8hL1wqpfCaJUiyc9HsI2Reo3p9D4rQRd3_QE53oBQvvefoT2hrN9T-eCzfH2nwIKFqtvdkwceInyrVWDpQwd5-ndQIPo7tRhZA8rUW7NDO0o-xxZlUpDwo3zYJMLRV1Hf6GjycZ1lQsPQXfHq9mqwVLkgY0pyNVBRD1UdbLSN2B9jM3JQ4mSC0davg9GLUfBVENQF6h26yIaFpmzLsJQ5s6IEtWsfJkG1M5lPbud2CMpDXGbiQfc2Vi-tfob3lW0DNCxYBC_eXhA7j_mqNgHUeIXtxVQafZRgWSnRDWhKaVXCoWWPMU2eeD8PAlECNyejAT9HL7kZ4n39ok3Nc1m00]--></g></svg>