<?xml version="1.0" encoding="us-ascii" standalone="no"?><svg xmlns="http://www.w3.org/2000/svg" xmlns:xlink="http://www.w3.org/1999/xlink" contentStyleType="text/css" height="573px" preserveAspectRatio="none" style="width:556px;height:573px;background:#FFFFFF;" version="1.1" viewBox="0 0 556 573" width="556px" zoomAndPan="magnify"><defs/><g><text fill="#000000" font-family="sans-serif" font-size="14" font-weight="bold" lengthAdjust="spacing" textLength="412" x="68.25" y="29.5332">Book Creation Synchronization Between Service Instances</text><rect fill="#FFFFFF" height="104.0547" style="stroke:#181818;stroke-width:1.0;" width="10" x="163" y="257.9766"/><rect fill="#FFFFFF" height="36.3516" style="stroke:#181818;stroke-width:1.0;" width="10" x="295" y="392.3828"/><line style="stroke:#181818;stroke-width:0.5;stroke-dasharray:5.0,5.0;" x1="168" x2="168" y1="76.2188" y2="536.7891"/><line style="stroke:#181818;stroke-width:0.5;stroke-dasharray:5.0,5.0;" x1="300" x2="300" y1="76.2188" y2="536.7891"/><line style="stroke:#181818;stroke-width:0.5;stroke-dasharray:5.0,5.0;" x1="485.5" x2="485.5" y1="76.2188" y2="536.7891"/><rect fill="#E2E2F0" height="31.6094" rx="2.5" ry="2.5" style="stroke:#181818;stroke-width:0.5;" width="122" x="107" y="43.6094"/><text fill="#000000" font-family="sans-serif" font-size="14" lengthAdjust="spacing" textLength="108" x="114" y="65.1426">Books Instance 1</text><rect fill="#E2E2F0" height="31.6094" rx="2.5" ry="2.5" style="stroke:#181818;stroke-width:0.5;" width="122" x="107" y="535.7891"/><text fill="#000000" font-family="sans-serif" font-size="14" lengthAdjust="spacing" textLength="108" x="114" y="557.3223">Books Instance 1</text><rect fill="#E2E2F0" height="31.6094" rx="2.5" ry="2.5" style="stroke:#181818;stroke-width:0.5;" width="122" x="239" y="43.6094"/><text fill="#000000" font-family="sans-serif" font-size="14" lengthAdjust="spacing" textLength="108" x="246" y="65.1426">Books Instance 2</text><rect fill="#E2E2F0" height="31.6094" rx="2.5" ry="2.5" style="stroke:#181818;stroke-width:0.5;" width="122" x="239" y="535.7891"/><text fill="#000000" font-family="sans-serif" font-size="14" lengthAdjust="spacing" textLength="108" x="246" y="557.3223">Books Instance 2</text><rect fill="#E2E2F0" height="31.6094" rx="2.5" ry="2.5" style="stroke:#181818;stroke-width:0.5;" width="117" x="427.5" y="43.6094"/><text fill="#000000" font-family="sans-serif" font-size="14" lengthAdjust="spacing" textLength="103" x="434.5" y="65.1426">Message Broker</text><rect fill="#E2E2F0" height="31.6094" rx="2.5" ry="2.5" style="stroke:#181818;stroke-width:0.5;" width="117" x="427.5" y="535.7891"/><text fill="#000000" font-family="sans-serif" font-size="14" lengthAdjust="spacing" textLength="103" x="434.5" y="557.3223">Message Broker</text><rect fill="#FFFFFF" height="104.0547" style="stroke:#181818;stroke-width:1.0;" width="10" x="163" y="257.9766"/><rect fill="#FFFFFF" height="36.3516" style="stroke:#181818;stroke-width:1.0;" width="10" x="295" y="392.3828"/><rect fill="#EEEEEE" height="3" style="stroke:#EEEEEE;stroke-width:1.0;" width="549.5" x="0" y="107.3945"/><line style="stroke:#000000;stroke-width:1.0;" x1="0" x2="549.5" y1="107.3945" y2="107.3945"/><line style="stroke:#000000;stroke-width:1.0;" x1="0" x2="549.5" y1="110.3945" y2="110.3945"/><rect fill="#EEEEEE" height="24.3516" style="stroke:#000000;stroke-width:2.0;" width="149" x="200.25" y="96.2188"/><text fill="#000000" font-family="sans-serif" font-size="13" font-weight="bold" lengthAdjust="spacing" textLength="131" x="206.25" y="113.7139">Service Initialization</text><polygon fill="#181818" points="474,148.9219,484,152.9219,474,156.9219,478,152.9219" style="stroke:#181818;stroke-width:1.0;"/><line style="stroke:#181818;stroke-width:1.0;" x1="168" x2="480" y1="152.9219" y2="152.9219"/><text fill="#000000" font-family="sans-serif" font-size="13" lengthAdjust="spacing" textLength="162" x="175" y="148.0654">Subscribe to "book.created"</text><polygon fill="#181818" points="474,179.2734,484,183.2734,474,187.2734,478,183.2734" style="stroke:#181818;stroke-width:1.0;"/><line style="stroke:#181818;stroke-width:1.0;" x1="300" x2="480" y1="183.2734" y2="183.2734"/><text fill="#000000" font-family="sans-serif" font-size="13" lengthAdjust="spacing" textLength="162" x="307" y="178.417">Subscribe to "book.created"</text><rect fill="#EEEEEE" height="3" style="stroke:#EEEEEE;stroke-width:1.0;" width="549.5" x="0" y="212.4492"/><line style="stroke:#000000;stroke-width:1.0;" x1="0" x2="549.5" y1="212.4492" y2="212.4492"/><line style="stroke:#000000;stroke-width:1.0;" x1="0" x2="549.5" y1="215.4492" y2="215.4492"/><rect fill="#EEEEEE" height="24.3516" style="stroke:#000000;stroke-width:2.0;" width="143" x="203.25" y="201.2734"/><text fill="#000000" font-family="sans-serif" font-size="13" font-weight="bold" lengthAdjust="spacing" textLength="125" x="209.25" y="218.7686">Book Creation Flow</text><polygon fill="#181818" points="151,253.9766,161,257.9766,151,261.9766,155,257.9766" style="stroke:#181818;stroke-width:1.0;"/><line style="stroke:#181818;stroke-width:1.0;" x1="0" x2="157" y1="257.9766" y2="257.9766"/><text fill="#000000" font-family="sans-serif" font-size="13" lengthAdjust="spacing" textLength="144" x="7" y="253.1201">Create new book (POST)</text><line style="stroke:#181818;stroke-width:1.0;" x1="173" x2="215" y1="288.3281" y2="288.3281"/><line style="stroke:#181818;stroke-width:1.0;" x1="215" x2="215" y1="288.3281" y2="301.3281"/><line style="stroke:#181818;stroke-width:1.0;" x1="174" x2="215" y1="301.3281" y2="301.3281"/><polygon fill="#181818" points="184,297.3281,174,301.3281,184,305.3281,180,301.3281" style="stroke:#181818;stroke-width:1.0;"/><text fill="#000000" font-family="sans-serif" font-size="13" lengthAdjust="spacing" textLength="70" x="180" y="283.4717">Create book</text><polygon fill="#181818" points="474,327.6797,484,331.6797,474,335.6797,478,331.6797" style="stroke:#181818;stroke-width:1.0;"/><line style="stroke:#181818;stroke-width:1.0;" x1="173" x2="480" y1="331.6797" y2="331.6797"/><text fill="#000000" font-family="sans-serif" font-size="13" lengthAdjust="spacing" textLength="132" x="180" y="326.8232">Publish "book.created"</text><polygon fill="#181818" points="11,358.0313,1,362.0313,11,366.0313,7,362.0313" style="stroke:#181818;stroke-width:1.0;"/><line style="stroke:#181818;stroke-width:1.0;stroke-dasharray:2.0,2.0;" x1="5" x2="167" y1="362.0313" y2="362.0313"/><text fill="#000000" font-family="sans-serif" font-size="13" lengthAdjust="spacing" textLength="70" x="17" y="357.1748">201 Created</text><polygon fill="#181818" points="316,388.3828,306,392.3828,316,396.3828,312,392.3828" style="stroke:#181818;stroke-width:1.0;"/><line style="stroke:#181818;stroke-width:1.0;" x1="310" x2="485" y1="392.3828" y2="392.3828"/><text fill="#000000" font-family="sans-serif" font-size="13" lengthAdjust="spacing" textLength="122" x="322" y="387.5264">Notify "book.created"</text><line style="stroke:#181818;stroke-width:1.0;" x1="305" x2="347" y1="427.7344" y2="427.7344"/><line style="stroke:#181818;stroke-width:1.0;" x1="347" x2="347" y1="427.7344" y2="440.7344"/><line style="stroke:#181818;stroke-width:1.0;" x1="300" x2="347" y1="440.7344" y2="440.7344"/><polygon fill="#181818" points="310,436.7344,300,440.7344,310,444.7344,306,440.7344" style="stroke:#181818;stroke-width:1.0;"/><text fill="#000000" font-family="sans-serif" font-size="13" lengthAdjust="spacing" textLength="62" x="312" y="422.8779">Sync book</text><polygon fill="#181818" points="179,462.0859,169,466.0859,179,470.0859,175,466.0859" style="stroke:#181818;stroke-width:1.0;"/><line style="stroke:#181818;stroke-width:1.0;" x1="173" x2="485" y1="466.0859" y2="466.0859"/><text fill="#000000" font-family="sans-serif" font-size="13" lengthAdjust="spacing" textLength="122" x="185" y="461.2295">Notify "book.created"</text><path d="M173,479.0859 L173,521.0859 L372,521.0859 L372,489.0859 L362,479.0859 L173,479.0859 " fill="#FEFFDD" style="stroke:#181818;stroke-width:0.5;"/><path d="M362,479.0859 L362,489.0859 L372,489.0859 L362,479.0859 " fill="#FEFFDD" style="stroke:#181818;stroke-width:0.5;"/><text fill="#000000" font-family="sans-serif" font-size="13" lengthAdjust="spacing" textLength="162" x="179" y="497.5811">Instance 1 ignores the event</text><text fill="#000000" font-family="sans-serif" font-size="13" lengthAdjust="spacing" textLength="178" x="179" y="513.9326">since it originated the creation.</text><!--SRC=[ZP4nJyCm48Lt_ufJ9XXI4OyLOMWb90QWKjawsSurEJMrA_kQglnwx3IKf1A8qNxVU_VEPk8MOU7S3fOU5PEpi3vRqtXdwVDoNY2V4ECz-euCmeiDhAp18CH1UIP31sKPifGIhYeK6QW0klWJaXT8Jg5N347LiPTtE_GzijT2bEMe0p6fzhjYMGfTGFuKiJciZpeOJng17MGw3foPj1jMcH1Q_WkBewQFyjowKngpYMvTp2y2WiKJ92lShTxN7_T26QOk2N7leTA8xibHqzLHjnIQs-cRnpplRVAX6AoLg72IlTTzjfp3csFQdcypVc0vx9pOzBL3Yt6UlEOLl-LP5q5FTSFWjga1Z7uQgBREOm1k4B13or4Eb3IAVBIHJJ6zReOddGcq5QHSyGK0]--></g></svg>