<?xml version="1.0" encoding="us-ascii" standalone="no"?><svg xmlns="http://www.w3.org/2000/svg" xmlns:xlink="http://www.w3.org/1999/xlink" contentStyleType="text/css" height="897px" preserveAspectRatio="none" style="width:922px;height:897px;background:#FFFFFF;" version="1.1" viewBox="0 0 922 897" width="922px" zoomAndPan="magnify"><defs/><g><text fill="#000000" font-family="sans-serif" font-size="14" font-weight="bold" lengthAdjust="spacing" textLength="538" x="188.25" y="29.5332">As a librarian, I want to create a Book, Author and Genre in the same process</text><rect fill="#FFFFFF" height="503.2734" style="stroke:#181818;stroke-width:1.0;" width="10" x="323" y="349.0313"/><rect fill="#FFFFFF" height="104.0547" style="stroke:#181818;stroke-width:1.0;" width="10" x="435" y="440.0859"/><rect fill="#FFFFFF" height="104.0547" style="stroke:#181818;stroke-width:1.0;" width="10" x="551" y="604.8438"/><rect fill="#FFFFFF" height="690.3828" style="stroke:#181818;stroke-width:1.0;" width="10" x="847" y="152.9219"/><line style="stroke:#181818;stroke-width:0.5;stroke-dasharray:5.0,5.0;" x1="30" x2="30" y1="76.2188" y2="861.3047"/><line style="stroke:#181818;stroke-width:0.5;stroke-dasharray:5.0,5.0;" x1="327.5" x2="327.5" y1="76.2188" y2="861.3047"/><line style="stroke:#181818;stroke-width:0.5;stroke-dasharray:5.0,5.0;" x1="439.5" x2="439.5" y1="76.2188" y2="861.3047"/><line style="stroke:#181818;stroke-width:0.5;stroke-dasharray:5.0,5.0;" x1="555.5" x2="555.5" y1="76.2188" y2="861.3047"/><line style="stroke:#181818;stroke-width:0.5;stroke-dasharray:5.0,5.0;" x1="851.5" x2="851.5" y1="76.2188" y2="861.3047"/><rect fill="#E2E2F0" height="31.6094" rx="2.5" ry="2.5" style="stroke:#181818;stroke-width:0.5;" width="50" x="5" y="43.6094"/><text fill="#000000" font-family="sans-serif" font-size="14" lengthAdjust="spacing" textLength="36" x="12" y="65.1426">Client</text><rect fill="#E2E2F0" height="31.6094" rx="2.5" ry="2.5" style="stroke:#181818;stroke-width:0.5;" width="50" x="5" y="860.3047"/><text fill="#000000" font-family="sans-serif" font-size="14" lengthAdjust="spacing" textLength="36" x="12" y="881.8379">Client</text><rect fill="#E2E2F0" height="31.6094" rx="2.5" ry="2.5" style="stroke:#181818;stroke-width:0.5;" width="97" x="279.5" y="43.6094"/><text fill="#000000" font-family="sans-serif" font-size="14" lengthAdjust="spacing" textLength="83" x="286.5" y="65.1426">Book Service</text><rect fill="#E2E2F0" height="31.6094" rx="2.5" ry="2.5" style="stroke:#181818;stroke-width:0.5;" width="97" x="279.5" y="860.3047"/><text fill="#000000" font-family="sans-serif" font-size="14" lengthAdjust="spacing" textLength="83" x="286.5" y="881.8379">Book Service</text><rect fill="#E2E2F0" height="31.6094" rx="2.5" ry="2.5" style="stroke:#181818;stroke-width:0.5;" width="107" x="386.5" y="43.6094"/><text fill="#000000" font-family="sans-serif" font-size="14" lengthAdjust="spacing" textLength="93" x="393.5" y="65.1426">Author Service</text><rect fill="#E2E2F0" height="31.6094" rx="2.5" ry="2.5" style="stroke:#181818;stroke-width:0.5;" width="107" x="386.5" y="860.3047"/><text fill="#000000" font-family="sans-serif" font-size="14" lengthAdjust="spacing" textLength="93" x="393.5" y="881.8379">Author Service</text><rect fill="#E2E2F0" height="31.6094" rx="2.5" ry="2.5" style="stroke:#181818;stroke-width:0.5;" width="105" x="503.5" y="43.6094"/><text fill="#000000" font-family="sans-serif" font-size="14" lengthAdjust="spacing" textLength="91" x="510.5" y="65.1426">Genre Service</text><rect fill="#E2E2F0" height="31.6094" rx="2.5" ry="2.5" style="stroke:#181818;stroke-width:0.5;" width="105" x="503.5" y="860.3047"/><text fill="#000000" font-family="sans-serif" font-size="14" lengthAdjust="spacing" textLength="91" x="510.5" y="881.8379">Genre Service</text><rect fill="#E2E2F0" height="31.6094" rx="2.5" ry="2.5" style="stroke:#181818;stroke-width:0.5;" width="117" x="793.5" y="43.6094"/><text fill="#000000" font-family="sans-serif" font-size="14" lengthAdjust="spacing" textLength="103" x="800.5" y="65.1426">Message Broker</text><rect fill="#E2E2F0" height="31.6094" rx="2.5" ry="2.5" style="stroke:#181818;stroke-width:0.5;" width="117" x="793.5" y="860.3047"/><text fill="#000000" font-family="sans-serif" font-size="14" lengthAdjust="spacing" textLength="103" x="800.5" y="881.8379">Message Broker</text><rect fill="#FFFFFF" height="503.2734" style="stroke:#181818;stroke-width:1.0;" width="10" x="323" y="349.0313"/><rect fill="#FFFFFF" height="104.0547" style="stroke:#181818;stroke-width:1.0;" width="10" x="435" y="440.0859"/><rect fill="#FFFFFF" height="104.0547" style="stroke:#181818;stroke-width:1.0;" width="10" x="551" y="604.8438"/><rect fill="#FFFFFF" height="690.3828" style="stroke:#181818;stroke-width:1.0;" width="10" x="847" y="152.9219"/><rect fill="#EEEEEE" height="3" style="stroke:#EEEEEE;stroke-width:1.0;" width="915.5" x="0" y="107.3945"/><line style="stroke:#000000;stroke-width:1.0;" x1="0" x2="915.5" y1="107.3945" y2="107.3945"/><line style="stroke:#000000;stroke-width:1.0;" x1="0" x2="915.5" y1="110.3945" y2="110.3945"/><rect fill="#EEEEEE" height="24.3516" style="stroke:#000000;stroke-width:2.0;" width="149" x="383.25" y="96.2188"/><text fill="#000000" font-family="sans-serif" font-size="13" font-weight="bold" lengthAdjust="spacing" textLength="131" x="389.25" y="113.7139">Service Initialization</text><polygon fill="#181818" points="835,148.9219,845,152.9219,835,156.9219,839,152.9219" style="stroke:#181818;stroke-width:1.0;"/><line style="stroke:#181818;stroke-width:1.0;" x1="328" x2="841" y1="152.9219" y2="152.9219"/><text fill="#000000" font-family="sans-serif" font-size="13" lengthAdjust="spacing" textLength="170" x="335" y="148.0654">Subscribe to , "book.created"</text><polygon fill="#181818" points="835,179.2734,845,183.2734,835,187.2734,839,183.2734" style="stroke:#181818;stroke-width:1.0;"/><line style="stroke:#181818;stroke-width:1.0;" x1="440" x2="841" y1="183.2734" y2="183.2734"/><text fill="#000000" font-family="sans-serif" font-size="13" lengthAdjust="spacing" textLength="287" x="447" y="178.417">Subscribe to "BookWithAuthorAndGenre.created"</text><polygon fill="#181818" points="835,209.625,845,213.625,835,217.625,839,213.625" style="stroke:#181818;stroke-width:1.0;"/><line style="stroke:#181818;stroke-width:1.0;" x1="440" x2="841" y1="213.625" y2="213.625"/><text fill="#000000" font-family="sans-serif" font-size="13" lengthAdjust="spacing" textLength="170" x="447" y="208.7686">Subscribe to "author.created"</text><polygon fill="#181818" points="835,239.9766,845,243.9766,835,247.9766,839,243.9766" style="stroke:#181818;stroke-width:1.0;"/><line style="stroke:#181818;stroke-width:1.0;" x1="556" x2="841" y1="243.9766" y2="243.9766"/><text fill="#000000" font-family="sans-serif" font-size="13" lengthAdjust="spacing" textLength="267" x="563" y="239.1201">Subscribe BookWithAuthorAndGenre.created"</text><polygon fill="#181818" points="835,270.3281,845,274.3281,835,278.3281,839,274.3281" style="stroke:#181818;stroke-width:1.0;"/><line style="stroke:#181818;stroke-width:1.0;" x1="556" x2="841" y1="274.3281" y2="274.3281"/><text fill="#000000" font-family="sans-serif" font-size="13" lengthAdjust="spacing" textLength="166" x="563" y="269.4717">Subscribe to "genre.created"</text><rect fill="#EEEEEE" height="3" style="stroke:#EEEEEE;stroke-width:1.0;" width="915.5" x="0" y="303.5039"/><line style="stroke:#000000;stroke-width:1.0;" x1="0" x2="915.5" y1="303.5039" y2="303.5039"/><line style="stroke:#000000;stroke-width:1.0;" x1="0" x2="915.5" y1="306.5039" y2="306.5039"/><rect fill="#EEEEEE" height="24.3516" style="stroke:#000000;stroke-width:2.0;" width="107" x="404.25" y="292.3281"/><text fill="#000000" font-family="sans-serif" font-size="13" font-weight="bold" lengthAdjust="spacing" textLength="89" x="410.25" y="309.8232">Creation Flow</text><polygon fill="#181818" points="311,345.0313,321,349.0313,311,353.0313,315,349.0313" style="stroke:#181818;stroke-width:1.0;"/><line style="stroke:#181818;stroke-width:1.0;" x1="30" x2="317" y1="349.0313" y2="349.0313"/><text fill="#000000" font-family="sans-serif" font-size="13" lengthAdjust="spacing" textLength="274" x="37" y="344.1748">Create book (POST with author and genre data)</text><polygon fill="#181818" points="835,375.3828,845,379.3828,835,383.3828,839,379.3828" style="stroke:#181818;stroke-width:1.0;"/><line style="stroke:#181818;stroke-width:1.0;" x1="333" x2="841" y1="379.3828" y2="379.3828"/><text fill="#000000" font-family="sans-serif" font-size="13" lengthAdjust="spacing" textLength="246" x="340" y="374.5264">publishBookWithAuthorAndGenre.created"</text><polygon fill="#181818" points="41,405.7344,31,409.7344,41,413.7344,37,409.7344" style="stroke:#181818;stroke-width:1.0;"/><line style="stroke:#181818;stroke-width:1.0;stroke-dasharray:2.0,2.0;" x1="35" x2="322" y1="409.7344" y2="409.7344"/><text fill="#000000" font-family="sans-serif" font-size="13" lengthAdjust="spacing" textLength="80" x="47" y="404.8779">202 Accepted</text><polygon fill="#181818" points="456,436.0859,446,440.0859,456,444.0859,452,440.0859" style="stroke:#181818;stroke-width:1.0;"/><line style="stroke:#181818;stroke-width:1.0;" x1="450" x2="846" y1="440.0859" y2="440.0859"/><text fill="#000000" font-family="sans-serif" font-size="13" lengthAdjust="spacing" textLength="236" x="462" y="435.2295">notifyBookWithAuthorAndGenre.created"</text><line style="stroke:#181818;stroke-width:1.0;" x1="445" x2="487" y1="470.4375" y2="470.4375"/><line style="stroke:#181818;stroke-width:1.0;" x1="487" x2="487" y1="470.4375" y2="483.4375"/><line style="stroke:#181818;stroke-width:1.0;" x1="446" x2="487" y1="483.4375" y2="483.4375"/><polygon fill="#181818" points="456,479.4375,446,483.4375,456,487.4375,452,483.4375" style="stroke:#181818;stroke-width:1.0;"/><text fill="#000000" font-family="sans-serif" font-size="13" lengthAdjust="spacing" textLength="85" x="452" y="465.5811">Create authorp</text><polygon fill="#181818" points="835,509.7891,845,513.7891,835,517.7891,839,513.7891" style="stroke:#181818;stroke-width:1.0;"/><line style="stroke:#181818;stroke-width:1.0;" x1="445" x2="841" y1="513.7891" y2="513.7891"/><text fill="#000000" font-family="sans-serif" font-size="13" lengthAdjust="spacing" textLength="138" x="452" y="508.9326">publish "author.created"</text><polygon fill="#181818" points="451,540.1406,441,544.1406,451,548.1406,447,544.1406" style="stroke:#181818;stroke-width:1.0;"/><line style="stroke:#181818;stroke-width:1.0;" x1="445" x2="846" y1="544.1406" y2="544.1406"/><text fill="#000000" font-family="sans-serif" font-size="13" lengthAdjust="spacing" textLength="128" x="457" y="539.2842">notify "author.created"</text><polygon fill="#181818" points="344,570.4922,334,574.4922,344,578.4922,340,574.4922" style="stroke:#181818;stroke-width:1.0;"/><line style="stroke:#181818;stroke-width:1.0;" x1="338" x2="846" y1="574.4922" y2="574.4922"/><text fill="#000000" font-family="sans-serif" font-size="13" lengthAdjust="spacing" textLength="128" x="350" y="569.6357">notify "author.created"</text><polygon fill="#181818" points="572,600.8438,562,604.8438,572,608.8438,568,604.8438" style="stroke:#181818;stroke-width:1.0;"/><line style="stroke:#181818;stroke-width:1.0;" x1="566" x2="846" y1="604.8438" y2="604.8438"/><text fill="#000000" font-family="sans-serif" font-size="13" lengthAdjust="spacing" textLength="236" x="578" y="599.9873">notifyBookWithAuthorAndGenre.created"</text><line style="stroke:#181818;stroke-width:1.0;" x1="561" x2="603" y1="635.1953" y2="635.1953"/><line style="stroke:#181818;stroke-width:1.0;" x1="603" x2="603" y1="635.1953" y2="648.1953"/><line style="stroke:#181818;stroke-width:1.0;" x1="562" x2="603" y1="648.1953" y2="648.1953"/><polygon fill="#181818" points="572,644.1953,562,648.1953,572,652.1953,568,648.1953" style="stroke:#181818;stroke-width:1.0;"/><text fill="#000000" font-family="sans-serif" font-size="13" lengthAdjust="spacing" textLength="74" x="568" y="630.3389">Create genre</text><polygon fill="#181818" points="835,674.5469,845,678.5469,835,682.5469,839,678.5469" style="stroke:#181818;stroke-width:1.0;"/><line style="stroke:#181818;stroke-width:1.0;" x1="561" x2="841" y1="678.5469" y2="678.5469"/><text fill="#000000" font-family="sans-serif" font-size="13" lengthAdjust="spacing" textLength="134" x="568" y="673.6904">publish "genre.created"</text><polygon fill="#181818" points="567,704.8984,557,708.8984,567,712.8984,563,708.8984" style="stroke:#181818;stroke-width:1.0;"/><line style="stroke:#181818;stroke-width:1.0;" x1="561" x2="846" y1="708.8984" y2="708.8984"/><text fill="#000000" font-family="sans-serif" font-size="13" lengthAdjust="spacing" textLength="124" x="573" y="704.042">notify "genre.created"</text><polygon fill="#181818" points="344,735.25,334,739.25,344,743.25,340,739.25" style="stroke:#181818;stroke-width:1.0;"/><line style="stroke:#181818;stroke-width:1.0;" x1="338" x2="846" y1="739.25" y2="739.25"/><text fill="#000000" font-family="sans-serif" font-size="13" lengthAdjust="spacing" textLength="124" x="350" y="734.3936">notify "genre.created"</text><line style="stroke:#181818;stroke-width:1.0;" x1="333" x2="375" y1="769.6016" y2="769.6016"/><line style="stroke:#181818;stroke-width:1.0;" x1="375" x2="375" y1="769.6016" y2="782.6016"/><line style="stroke:#181818;stroke-width:1.0;" x1="334" x2="375" y1="782.6016" y2="782.6016"/><polygon fill="#181818" points="344,778.6016,334,782.6016,344,786.6016,340,782.6016" style="stroke:#181818;stroke-width:1.0;"/><text fill="#000000" font-family="sans-serif" font-size="13" lengthAdjust="spacing" textLength="70" x="340" y="764.7451">Create book</text><polygon fill="#181818" points="835,808.9531,845,812.9531,835,816.9531,839,812.9531" style="stroke:#181818;stroke-width:1.0;"/><line style="stroke:#181818;stroke-width:1.0;" x1="333" x2="841" y1="812.9531" y2="812.9531"/><text fill="#000000" font-family="sans-serif" font-size="13" lengthAdjust="spacing" textLength="130" x="340" y="808.0967">publish "book.created"</text><polygon fill="#181818" points="344,839.3047,334,843.3047,344,847.3047,340,843.3047" style="stroke:#181818;stroke-width:1.0;"/><line style="stroke:#181818;stroke-width:1.0;" x1="338" x2="851" y1="843.3047" y2="843.3047"/><text fill="#000000" font-family="sans-serif" font-size="13" lengthAdjust="spacing" textLength="120" x="350" y="838.4482">notify "book.created"</text><!--SRC=[bLFBQiCm4BphAnQVMaXBoJ7WWXjeoQ6qa4BFihoDbpYIaPM4zkkhL-9d6dgphDdPcTcL8LCXP0rmg2ZNN1ENCrZ1aKi3He7Go0tQsoUbjZF8zgPK6hWiu0MbHY09faHe-0wXrafWqp1MSsr8KEquacL5A4q2l07XF_lNZXVMg0yaq8Do-wCFYKsx8Ev_zM51K1UrSN_we5Sha6yGdhJQelQeNSvOcfuAOIN94A_eXnjI4jAKCIS9xXujSW7hVTu8JJcwT6QGkBlxa5AHC2uC7LnWbZHedApphZ_9bC5Q9Wil_im3VnQ7kxQfjpc6NkrneSwrsFIWp0UqT2SNoNEbZZuNni947OVBOH4mw0zmy_ws_e2ZLH37vTScD2suuRTjMdxclPZhVLvHKrxr48jiLP2oWFd3738XiBO0ndQvOmpz5o2LeQ_lAwIjhBXbxInEFD5cEDQ3OKNfupbrjS19p1XMu510hFHMBzT5b0_utrR3KpblH2I9FWUNFPE3JPdGCC9q30Rchi6BLUVr66tQrE8C7-PaWdr8LvTzlhy0]--></g></svg>